<svg xmlns="http://www.w3.org/2000/svg" viewBox="0 0 1280.16 504"><defs><style>.cls-1{fill:#cdcbc0;}.cls-2{fill:#c67d61;}.cls-3{fill:#1f82ba;}</style></defs><g id="Layer_13" data-name="Layer 13"><path class="cls-1" d="M306.25,268s-3.78,36.34,19.7,51.1c0,0-17.61,7.61-30.78-21.58,0,0,7.08,32.64,31.2,35.5,0,0-6.11,1.15-12.64,2.26,0,0,5.55,26.5,11.58,35.7,0,0-5.19-1.29-16.3-12.24a142,142,0,0,1,.28,26.84c-1.36,13.69.16,21.58.16,21.58s-9.21-7-11.74-16.52c0,0,.31,26-15.71,40.32a54.35,54.35,0,0,0,2.44-30.27s-7,35.46-26.72,46.29c0,0,5.77-7.51,3.87-25.28,0,0-11,26.12-24,36.39h0c-13-10.27-24-36.39-24-36.39-1.9,17.77,3.87,25.28,3.87,25.28-19.76-10.83-26.72-46.29-26.72-46.29a54.35,54.35,0,0,0,2.44,30.27c-16-14.28-15.71-40.32-15.71-40.32-2.54,9.52-11.74,16.52-11.74,16.52s1.52-7.89.16-21.58a142,142,0,0,1,.28-26.84c-11.11,10.95-16.31,12.24-16.31,12.24,6-9.2,11.59-35.7,11.59-35.7-6.53-1.11-12.64-2.26-12.64-2.26,24.12-2.86,31.2-35.5,31.2-35.5-13.17,29.19-30.78,21.58-30.78,21.58,23.48-14.76,21.24-70.84,21.24-70.84"/><path class="cls-2" d="M198.06,255.39v15.53a1.87,1.87,0,0,0,.63,1.4l9.45,8.41v6.77a3.38,3.38,0,0,0,1,2.39l3.73,3.74a.66.66,0,0,0,1-.12,57.71,57.71,0,0,1,5.8-7.91,9.5,9.5,0,0,1,6.11-3l7.57-.72s-6.84-1.77-9.94-4.73a1.52,1.52,0,0,1-.34-1.69,20.62,20.62,0,0,1,5.92-7.71l-.15,4.42a5.88,5.88,0,0,0,2.23,4.85,17.54,17.54,0,0,0,6.44,3.19h.22a17,17,0,0,0,6.36-3.19,5.91,5.91,0,0,0,2.23-4.85l-.06-1.7,3.14.75a18.86,18.86,0,0,1,2.69,4.24,1.52,1.52,0,0,1-.34,1.69c-3.1,3-9.95,4.73-9.95,4.73l7.58.72a9.52,9.52,0,0,1,6.11,3,57.71,57.71,0,0,1,5.8,7.91.66.66,0,0,0,1,.12l3.73-3.74a3.38,3.38,0,0,0,1-2.39v-6.77l7.91-7"/><path class="cls-2" d="M237.59,295.15c4.74,2.38,3.19,1.13,8.59,3.11a15.76,15.76,0,0,1,7.77,6c.36-5.32-3.33-9.79-5.18-11.66a3,3,0,0,0-2.16-.88,16.31,16.31,0,0,1-9-3h0a16.31,16.31,0,0,1-9,3,3,3,0,0,0-2.16.88c-1.85,1.87-5.54,6.34-5.18,11.66a15.76,15.76,0,0,1,7.77-6c5.4-2,3.85-.73,8.59-3.11Z"/><path class="cls-3" d="M305,63.9,284.81,84.26a1,1,0,0,1-1.28.15c-2.95-1.85-14.72-9-24.22-11.94l12.46,32a2.07,2.07,0,0,1-.22,1.9l-11.5,16.9a2.37,2.37,0,0,0-.21,2.29l18.35,41.14a3.8,3.8,0,0,0,2.69,2.16l4.48.94a1.67,1.67,0,0,1,1.33,1.51l.92,12.48a3.1,3.1,0,0,0,1.14,2.19l2.74,2.25a2.39,2.39,0,0,1,.83,1.39l1.21,5.89a1.62,1.62,0,0,1-.66,1.65l-10.41,7.31a17.58,17.58,0,0,1-4.42,2.26L246,217.81l34.47-4.73a7.74,7.74,0,0,0,2.62-.84l16.66-8.82a2,2,0,0,1,2,.05l21,12.41a21,21,0,0,0,4.62,2L360.49,228a.72.72,0,0,1,.36,1.14,126.78,126.78,0,0,1-26.67,24.53c-2.32-.77-10.65-3.23-11.84-3.63.27,1.9.56,4.46,1,6.67-1.5-.78-11.42-6.15-12.73-7.06.79,1.86,4,7.61,7.07,13.61a103.92,103.92,0,0,1-68.52,7.91C179.64,255.86,193.84,239,117.8,253.3a1.53,1.53,0,0,1-1.29-.38L113.43,250a.21.21,0,0,1,0-.32c2.93-2.2,37.75-28.18,53.09-34.25a11.62,11.62,0,0,1,4.52-.79l21.45.44-15.45-4.55a1.07,1.07,0,0,1-.77-1l-.32-7.21a10.25,10.25,0,0,0,2-3.51,14.18,14.18,0,0,0,.65-6.9L177,180.88a.88.88,0,0,1,.48-.92l2.81-1.4a2.78,2.78,0,0,1,1.88-.23l17.53,3.95a7.42,7.42,0,0,0,2,.17l22.76-1.25-22.23-3.5A7.67,7.67,0,0,1,200,177l-13-6.43a1.12,1.12,0,0,1-.59-1.26L201.52,105a4.75,4.75,0,0,1,2.51-3.17l17.14-8.52a2.3,2.3,0,0,0,1.22-1.53l8-33.11a1.78,1.78,0,0,1,1.14-1.27L262.63,46a1.05,1.05,0,0,1,1.17.29c2.42,2.76,13.39,15.43,19.7,26.47a.88.88,0,0,0,1.15.37Z"/><path class="cls-1" d="M459.1,195.53V117.29H486a49.33,49.33,0,0,1,15.66,2.34,22.74,22.74,0,0,1,11.22,7.86q4.2,5.52,4.2,15,0,9.12-4.2,15a24.87,24.87,0,0,1-11.16,8.7A40.21,40.21,0,0,1,486.46,169h-9.72v26.52ZM476.74,155h8.64q7.32,0,10.86-3.24t3.54-9.24q0-6.24-3.84-8.7t-11-2.46h-8.16Z"/><path class="cls-1" d="M530.62,195.53V117.41h17.64v78.12Z"/><path class="cls-1" d="M558.82,195.53l21.72-40.2-20.4-38h19.68l6.84,14.76c1,1.76,1.87,3.68,2.76,5.76s1.84,4.36,2.88,6.84h.48c1-2.48,1.83-4.76,2.64-6.84s1.59-4,2.4-5.76l6.24-14.76H622.9l-20.28,38.88,21.6,39.36H604.54l-7.8-16q-1.44-3.12-2.82-6.18t-3.06-6.66h-.48c-.88,2.4-1.77,4.62-2.64,6.66s-1.76,4.1-2.64,6.18l-7.32,16Z"/><path class="cls-1" d="M634.77,195.53V117.29h49v14.88H652.41v15.72h26.64v14.76H652.41v18h32.52v14.88Z"/><path class="cls-1" d="M700.53,195.53V117.41h17.64v63.24h31v14.88Z"/><path class="cls-1" d="M459.1,339.53V261.29h49v14.88H476.74v15.72h26.64v14.76H476.74v18h32.52v14.88Z"/><path class="cls-1" d="M524.86,339.53V261.41h18.48l20,38.4q2,4,4,8.52c1.27,3,2.52,6.08,3.72,9.12h.48q-.72-6.36-1.5-13.92a138.83,138.83,0,0,1-.78-14.52v-27.6h16.92v78.12H567.7l-20.16-38.4c-1.28-2.64-2.57-5.5-3.84-8.58s-2.57-6.1-3.84-9.06h-.48c.55,4.24,1.08,8.84,1.56,13.8s.72,9.8.72,14.52v27.72Z"/><path class="cls-1" d="M637.77,341a38.16,38.16,0,0,1-18.42-4.5A33.6,33.6,0,0,1,606,323q-5-8.94-5-22.14a48.27,48.27,0,0,1,2.94-17.46,37.5,37.5,0,0,1,8.1-12.9,33.67,33.67,0,0,1,11.88-7.92A37.74,37.74,0,0,1,637.77,260a30.7,30.7,0,0,1,13.68,2.94,32.53,32.53,0,0,1,9.84,7.14l-9.24,10.68a20.05,20.05,0,0,0-6.23-4.14,19.81,19.81,0,0,0-7.56-1.38,16.54,16.54,0,0,0-9.6,3.06,20.73,20.73,0,0,0-7,8.64,31.68,31.68,0,0,0-2.58,13.38A33.85,33.85,0,0,0,621.58,314a19.83,19.83,0,0,0,6.95,8.7,18.2,18.2,0,0,0,10.44,3,17.49,17.49,0,0,0,8.16-1.86,24.21,24.21,0,0,0,6.37-4.74l8.87,10.56a34,34,0,0,1-11.21,8.46A31.89,31.89,0,0,1,637.77,341Z"/><path class="cls-1" d="M674.37,339.53V261.41H692v30h27v-30h17.76v78.12H719V306.89H692v32.64Z"/><path class="cls-1" d="M745.29,339.53l24.6-78.12h21l24.61,78.12H796.77l-10.2-39.6q-1.68-5.88-3.23-12.48t-3.13-12.84h-.48q-1.32,6.36-2.94,12.9t-3.29,12.42l-10.21,39.6Zm16.08-18.6v-13.8h37.68v13.8Z"/><path class="cls-1" d="M824,339.53V261.41h18.48l20,38.4q2,4,4,8.52t3.72,9.12h.48q-.72-6.36-1.5-13.92a141.61,141.61,0,0,1-.78-14.52v-27.6h16.92v78.12H866.85l-20.16-38.4q-1.92-4-3.84-8.58T839,283.49h-.48q.84,6.36,1.57,13.8t.71,14.52v27.72Z"/><path class="cls-1" d="M919.05,339.53V276.17H897.57V261.41h60.72v14.76H936.81v63.36Z"/><path class="cls-1" d="M970.53,339.53V261.29h49v14.88H988.17v15.72h26.64v14.76H988.17v18h32.52v14.88Z"/><path class="cls-1" d="M1036.29,339.53V261.29h28.2a48.78,48.78,0,0,1,15.12,2.22,21.83,21.83,0,0,1,10.92,7.56q4.08,5.34,4.08,14.58,0,9-4.08,14.64a24,24,0,0,1-10.92,8.34,40.84,40.84,0,0,1-15.12,2.7h-10.56v28.2Zm17.64-42.24h9.12q7,0,10.62-2.94t3.66-8.7q0-5.76-3.66-8t-10.62-2.28h-9.12Zm24.72,42.24-17.4-32.76,12.24-11.4,25,44.16Z"/><path class="cls-1" d="M1132.05,341a43.64,43.64,0,0,1-15.36-2.82,39.21,39.21,0,0,1-13.56-8.58l9.36-11.52a32.17,32.17,0,0,0,9.54,5.64,29.29,29.29,0,0,0,10.5,2q5.52,0,8.22-2a6.56,6.56,0,0,0,2.7-5.52,5.71,5.71,0,0,0-1.38-4,12.59,12.59,0,0,0-3.9-2.7q-2.52-1.2-6-2.64l-10.2-4.2a38.75,38.75,0,0,1-7.62-4.62,21.51,21.51,0,0,1-5.88-7,20.68,20.68,0,0,1-2.22-9.9,20.37,20.37,0,0,1,3.54-11.7,25.43,25.43,0,0,1,9.84-8.4,31.66,31.66,0,0,1,14.46-3.18,38,38,0,0,1,13.68,2.52,33.32,33.32,0,0,1,11.52,7.32l-9.36,11.4a33,33,0,0,0-7.86-4.44,21.93,21.93,0,0,0-8-1.56,12.6,12.6,0,0,0-7.26,1.86,6,6,0,0,0-2.7,5.22,5.42,5.42,0,0,0,1.56,3.9,12.57,12.57,0,0,0,4.32,2.76q2.76,1.14,6,2.58l10.08,4.08a29.86,29.86,0,0,1,8.22,4.8,20.44,20.44,0,0,1,5.34,6.9,23.35,23.35,0,0,1-1.56,21.54,24.93,24.93,0,0,1-10.08,8.88A34.84,34.84,0,0,1,1132.05,341Z"/></g></svg>